<svg width="227" height="186" viewBox="0 0 227 186" fill="none" xmlns="http://www.w3.org/2000/svg">
<g filter="url(#filter0_d_2_1232)">
<rect x="80" y="48" width="67" height="38" rx="10" fill="#6765F0"/>
</g>
<path d="M156.2 56.46C156.2 56.46 155.08 56.68 153.8 56.68V72H155.16L155.92 69.36C155.92 69.36 156.66 72.28 160.18 72.28C163.5 72.28 165.74 69.86 165.74 66.46C165.74 63.06 163.5 60.62 160.18 60.62C157.18 60.62 156.2 62.96 156.2 62.96V56.46ZM159.42 70.5C157.02 70.5 155.7 68.66 155.7 66.46C155.7 64.26 157.02 62.4 159.42 62.4C161.78 62.4 163.18 64.06 163.18 66.46C163.18 68.86 161.78 70.5 159.42 70.5ZM178.241 69.34L178.361 64.68C178.421 62.4 176.801 60.62 173.481 60.62C169.021 60.62 167.941 63.92 167.941 63.92L170.421 64.64C170.421 64.64 170.961 62.4 173.561 62.4C176.141 62.4 175.941 64.72 175.941 64.72C169.981 65.4 168.341 67.98 168.341 69.84C168.341 71.22 169.381 72.28 171.021 72.28C174.341 72.28 175.941 67.8 175.941 67.8V69.7C175.941 71.66 177.181 72.28 178.421 72.28C180.281 72.28 181.021 71.28 181.021 71.28L180.541 69.5C180.541 69.5 180.101 70.5 179.121 70.5C178.481 70.5 178.221 70.04 178.241 69.34ZM170.881 69.34C170.881 68.36 171.481 66.54 175.941 65.4V66.1C175.981 66.94 174.061 70.5 171.941 70.5C171.281 70.5 170.881 70.1 170.881 69.34ZM185.223 65.42C185.223 64.78 185.883 62.4 187.423 62.4C188.083 62.4 188.403 62.9 188.403 63.86C188.403 65.14 187.983 66.42 187.983 66.42L190.463 65.7C190.463 65.7 190.863 64.76 190.863 63.34C190.863 61.88 190.283 60.62 188.443 60.62C185.383 60.62 185.003 64.2 185.003 64.2L183.983 60.9H182.823V72H185.223V65.42ZM202.558 69.34L202.678 64.68C202.738 62.4 201.118 60.62 197.798 60.62C193.338 60.62 192.258 63.92 192.258 63.92L194.738 64.64C194.738 64.64 195.278 62.4 197.878 62.4C200.458 62.4 200.258 64.72 200.258 64.72C194.298 65.4 192.658 67.98 192.658 69.84C192.658 71.22 193.698 72.28 195.338 72.28C198.658 72.28 200.258 67.8 200.258 67.8V69.7C200.258 71.66 201.498 72.28 202.738 72.28C204.598 72.28 205.338 71.28 205.338 71.28L204.858 69.5C204.858 69.5 204.418 70.5 203.438 70.5C202.798 70.5 202.538 70.04 202.558 69.34ZM195.198 69.34C195.198 68.36 195.798 66.54 200.258 65.4V66.1C200.298 66.94 198.378 70.5 196.258 70.5C195.598 70.5 195.198 70.1 195.198 69.34ZM216.1 72H218.5V65.12C218.5 62.32 217.14 60.62 213.84 60.62C209.6 60.62 209.32 64.2 209.32 64.2L208.3 60.9H207.14V72H209.54V65.4C209.54 64.72 209.94 62.4 212.96 62.4C214.96 62.4 216.1 63.3 216.1 65.16V72Z" fill="#6765F0"/>
<path d="M103 62.02C103 62.02 102.08 56.18 94.86 56.18C89.34 56.18 86.2 59.56 86.2 64.24C86.2 68.9 89.34 72.28 94.26 72.28C99.06 72.28 100.14 69 100.14 69V72H102.74V64.12H94.28V65.82H100.14C100.14 65.82 99.84 70.3 94.66 70.3C91.1 70.3 88.94 67.66 88.94 64.24C88.94 60.8 91.1 58.16 94.86 58.16C99.86 58.16 100.32 62.82 100.32 62.82L103 62.02ZM109.588 72.02C108.848 73.72 107.728 74.9 106.748 74.9C105.768 74.9 105.348 74.08 105.328 74.04L105.048 75.82C105.048 75.82 105.768 76.74 107.248 76.74C109.088 76.74 110.308 75.08 111.808 72L117.188 60.9H114.468L111.128 68.76L107.628 60.9H104.868L109.908 71.3L109.588 72.02ZM135.903 72H138.303V65.12C138.303 62.32 137.343 60.62 134.243 60.62C131.143 60.62 130.143 62.72 129.843 63.7C129.523 61.76 128.403 60.62 125.883 60.62C121.843 60.62 121.363 64.2 121.363 64.2L120.343 60.9H119.183V72H121.583V65.4C121.583 64.72 121.983 62.4 124.803 62.4C126.543 62.4 127.483 63.26 127.543 65.02V72H129.943V65.4C129.943 64.72 130.343 62.4 133.163 62.4C134.963 62.4 135.903 63.3 135.903 65.16V72Z" fill="white"/>
<defs>
<filter id="filter0_d_2_1232" x="0" y="-12" width="227" height="198" filterUnits="userSpaceOnUse" color-interpolation-filters="sRGB">
<feFlood flood-opacity="0" result="BackgroundImageFix"/>
<feColorMatrix in="SourceAlpha" type="matrix" values="0 0 0 0 0 0 0 0 0 0 0 0 0 0 0 0 0 0 127 0" result="hardAlpha"/>
<feOffset dy="20"/>
<feGaussianBlur stdDeviation="40"/>
<feComposite in2="hardAlpha" operator="out"/>
<feColorMatrix type="matrix" values="0 0 0 0 0.2 0 0 0 0 0.305882 0 0 0 0 0.482353 0 0 0 0.3 0"/>
<feBlend mode="normal" in2="BackgroundImageFix" result="effect1_dropShadow_2_1232"/>
<feBlend mode="normal" in="SourceGraphic" in2="effect1_dropShadow_2_1232" result="shape"/>
</filter>
</defs>
</svg>
